<svg xmlns="http://www.w3.org/2000/svg" viewBox="0 0 64 64" role="img" aria-label="Rekipe">
  <rect width="64" height="64" rx="18" fill="#f8faf8"/>
  <path d="M20 17h24a4 4 0 0 1 4 4v28a4 4 0 0 1-4 4H20a4 4 0 0 1-4-4V21a4 4 0 0 1 4-4Z" fill="#ffffff" stroke="#1f3328" stroke-width="2"/>
  <path d="M24 27h16M24 35h16M24 43h10" stroke="#1f3328" stroke-width="2.5" stroke-linecap="round"/>
  <path d="M42 13v10M49 15v8" stroke="#2f7d4a" stroke-width="2.5" stroke-linecap="round"/>
  <circle cx="43" cy="43" r="7" fill="#d9f2df" stroke="#2f7d4a" stroke-width="2"/>
  <path d="M40 43l2 2 5-5" fill="none" stroke="#2f7d4a" stroke-width="2.2" stroke-linecap="round" stroke-linejoin="round"/>
</svg>
